<svg width="24" height="24" viewBox="0 0 24 24" fill="none" xmlns="http://www.w3.org/2000/svg">
<path d="M20.5201 15.2097L18.7201 13.3996V8.93965C18.744 7.28347 18.1679 5.67456 17.0982 4.40999C16.0285 3.14541 14.5373 2.31059 12.9001 2.05965C11.9499 1.93452 10.9839 2.01347 10.0667 2.29123C9.14942 2.56899 8.30194 3.03917 7.5808 3.67041C6.85965 4.30165 6.28142 5.07943 5.88468 5.95184C5.48794 6.82426 5.28182 7.77126 5.28007 8.72965V13.3996L3.48007 15.2097C3.25398 15.4395 3.10066 15.7309 3.03927 16.0475C2.97789 16.364 3.01117 16.6916 3.13495 16.9893C3.25873 17.287 3.46752 17.5416 3.73522 17.7213C4.00292 17.901 4.31766 17.9978 4.64007 17.9997H8.00007V18.3397C8.04678 19.3549 8.49403 20.3101 9.2438 20.9962C9.99357 21.6822 10.9847 22.0431 12.0001 21.9997C13.0154 22.0431 14.0066 21.6822 14.7563 20.9962C15.5061 20.3101 15.9534 19.3549 16.0001 18.3397V17.9997H19.3601C19.6825 17.9978 19.9972 17.901 20.2649 17.7213C20.5326 17.5416 20.7414 17.287 20.8652 16.9893C20.989 16.6916 21.0223 16.364 20.9609 16.0475C20.8995 15.7309 20.7462 15.4395 20.5201 15.2097ZM14.0001 18.3397C13.9446 18.8207 13.7057 19.2617 13.3331 19.5709C12.9606 19.8802 12.4831 20.0337 12.0001 19.9997C11.5171 20.0337 11.0396 19.8802 10.667 19.5709C10.2944 19.2617 10.0555 18.8207 10.0001 18.3397V17.9997H14.0001V18.3397ZM5.51007 15.9997L6.69007 14.8196C6.87724 14.6336 7.02574 14.4123 7.127 14.1686C7.22826 13.9249 7.28028 13.6636 7.28007 13.3996V8.72965C7.28062 8.05505 7.42546 7.38837 7.70487 6.77436C7.98428 6.16035 8.3918 5.6132 8.90007 5.16965C9.40149 4.71533 9.99565 4.3754 10.6414 4.17338C11.2872 3.97136 11.9691 3.91209 12.6401 3.99965C13.7966 4.18743 14.8463 4.78666 15.596 5.68703C16.3457 6.5874 16.7449 7.72829 16.7201 8.89965V13.3996C16.7186 13.6629 16.769 13.9238 16.8685 14.1675C16.9681 14.4111 17.1147 14.6328 17.3001 14.8196L18.4901 15.9997H5.51007Z" fill="#222330"/>
</svg>
