<svg width="14" height="12" viewBox="0 0 14 12" fill="none" xmlns="http://www.w3.org/2000/svg">
<path d="M7.00008 11.999C6.91234 11.9995 6.82537 11.9827 6.74414 11.9495C6.66292 11.9164 6.58904 11.8675 6.52674 11.8057L1.34674 6.61903C0.696985 5.96249 0.33252 5.07608 0.33252 4.15237C0.33252 3.22866 0.696985 2.34225 1.34674 1.6857C2.00159 1.03271 2.88863 0.666016 3.81341 0.666016C4.73819 0.666016 5.62524 1.03271 6.28008 1.6857L7.00008 2.4057L7.72008 1.6857C8.37492 1.03271 9.26197 0.666016 10.1867 0.666016C11.1115 0.666016 11.9986 1.03271 12.6534 1.6857C13.3032 2.34225 13.6676 3.22866 13.6676 4.15237C13.6676 5.07608 13.3032 5.96249 12.6534 6.61903L7.47341 11.8057C7.41112 11.8675 7.33724 11.9164 7.25602 11.9495C7.17479 11.9827 7.08782 11.9995 7.00008 11.999ZM3.81341 1.99903C3.53119 1.99776 3.25153 2.05249 2.99062 2.16006C2.7297 2.26763 2.49273 2.4259 2.29341 2.6257C1.89078 3.03045 1.66477 3.57813 1.66477 4.14903C1.66477 4.71994 1.89078 5.26762 2.29341 5.67237L7.00008 10.3857L11.7067 5.67237C12.1094 5.26762 12.3354 4.71994 12.3354 4.14903C12.3354 3.57813 12.1094 3.03045 11.7067 2.6257C11.2959 2.23751 10.752 2.02123 10.1867 2.02123C9.62148 2.02123 9.07763 2.23751 8.66674 2.6257L7.47341 3.8257C7.41144 3.88819 7.3377 3.93778 7.25646 3.97163C7.17522 4.00547 7.08809 4.0229 7.00008 4.0229C6.91207 4.0229 6.82493 4.00547 6.74369 3.97163C6.66245 3.93778 6.58872 3.88819 6.52674 3.8257L5.33341 2.6257C5.1341 2.4259 4.89712 2.26763 4.63621 2.16006C4.37529 2.05249 4.09563 1.99776 3.81341 1.99903Z" fill="#606060"/>
</svg>
