<svg width="14" height="13" viewBox="0 0 14 13" fill="none" xmlns="http://www.w3.org/2000/svg">
<path d="M11.6666 0H2.33325C1.80282 0 1.29411 0.210714 0.919039 0.585787C0.543966 0.960859 0.333252 1.46957 0.333252 2V12C0.333456 12.1181 0.365044 12.2341 0.424786 12.336C0.484527 12.4379 0.570274 12.5221 0.673252 12.58C0.772889 12.6365 0.885393 12.6663 0.999919 12.6667C1.11957 12.6666 1.23701 12.6344 1.33992 12.5733L4.33325 10.76C4.4439 10.6941 4.57125 10.6617 4.69992 10.6667H11.6666C12.197 10.6667 12.7057 10.456 13.0808 10.0809C13.4559 9.70581 13.6666 9.1971 13.6666 8.66667V2C13.6666 1.46957 13.4559 0.960859 13.0808 0.585787C12.7057 0.210714 12.197 0 11.6666 0ZM12.3333 8.66667C12.3333 8.84348 12.263 9.01305 12.138 9.13807C12.013 9.2631 11.8434 9.33333 11.6666 9.33333H4.69992C4.3358 9.33304 3.97851 9.43216 3.66659 9.62L1.66659 10.82V2C1.66659 1.82319 1.73682 1.65362 1.86185 1.5286C1.98687 1.40357 2.15644 1.33333 2.33325 1.33333H11.6666C11.8434 1.33333 12.013 1.40357 12.138 1.5286C12.263 1.65362 12.3333 1.82319 12.3333 2V8.66667Z" fill="#606060"/>
</svg>
